<svg width="100" height="102" viewBox="0 0 100 102" fill="none" xmlns="http://www.w3.org/2000/svg">
<path d="M95.3829 39.3659C95.09 39.0671 94.6954 38.8997 94.2813 38.8997H66.9063V22.0493C66.9063 21.627 66.7384 21.2206 66.4454 20.9217C66.1524 20.6229 65.7579 20.4555 65.3438 20.4555H59.5743V13.0446C59.5743 12.6223 59.4102 12.2199 59.1173 11.921C58.8243 11.6222 58.4259 11.4508 58.0118 11.4508H50.4688V4.42639C50.4688 3.54585 49.7696 2.83264 48.9063 2.83264C48.043 2.83264 47.3438 3.54585 47.3438 4.42639V11.4508H39.7969C38.9336 11.4508 38.2344 12.164 38.2344 13.0446V20.4555H32.461C31.5977 20.4555 30.8985 21.1687 30.8985 22.0492V52.0352L5.35947 58.215C4.65635 58.3823 4.15637 59.0278 4.15637 59.7649V97.5722C4.15637 97.9945 4.32434 98.4009 4.61731 98.6998C4.91028 98.9986 5.30481 99.166 5.71891 99.166L94.2189 99.0743C94.633 99.0743 95.0314 98.903 95.3244 98.6042C95.6174 98.3053 95.7814 97.9029 95.7814 97.4805L95.8439 40.4799C95.84 40.0615 95.676 39.6591 95.383 39.3642L95.3829 39.3659ZM41.3599 14.639H56.4499V20.4562H41.3599V14.639ZM63.7819 23.6437V95.9199L34.0279 95.9518L34.024 23.6429L63.7819 23.6437ZM7.28194 61.0247L30.8989 55.311V95.9519L7.28194 95.9758V61.0247ZM78.2899 95.8883V90.6289H81.4071V95.8883H78.2899ZM92.6569 95.8883L84.5319 95.8962V89.0431C84.5319 88.6207 84.364 88.2143 84.071 87.9155C83.778 87.6166 83.3835 87.4493 82.9694 87.4493H76.735C75.8717 87.4493 75.1725 88.1625 75.1725 89.043V95.9121L66.9147 95.9201L66.9108 42.0753H92.7158L92.6569 95.8883ZM20.8989 65.7827V67.751C20.8989 68.6315 20.1997 69.3447 19.3364 69.3447C18.4732 69.3447 17.7739 68.6315 17.7739 67.751V65.7827C17.7739 64.9021 18.4732 64.1889 19.3364 64.1889C20.1997 64.1889 20.8989 64.9021 20.8989 65.7827ZM27.1489 65.7827V67.751C27.1489 68.6315 26.4497 69.3447 25.5864 69.3447C24.7232 69.3447 24.0239 68.6315 24.0239 67.751V65.7827C24.0239 64.9021 24.7232 64.1889 25.5864 64.1889C26.4497 64.1889 27.1489 64.9021 27.1489 65.7827ZM14.6489 65.7827V67.751C14.6489 68.6315 13.9497 69.3447 13.0864 69.3447C12.2232 69.3447 11.5239 68.6315 11.5239 67.751V65.7827C11.5239 64.9021 12.2232 64.1889 13.0864 64.1889C13.9497 64.1889 14.6489 64.9021 14.6489 65.7827ZM20.8989 75.6998V77.6681V77.6641C20.8989 78.5447 20.1997 79.2579 19.3364 79.2579C18.4732 79.2579 17.7739 78.5447 17.7739 77.6641V75.7038C17.7739 74.8232 18.4732 74.11 19.3364 74.11C20.1997 74.11 20.8989 74.8232 20.8989 75.7038V75.6998ZM27.1489 75.6998V77.6681V77.6641C27.1489 78.5447 26.4497 79.2579 25.5864 79.2579C24.7232 79.2579 24.0239 78.5447 24.0239 77.6641V75.7038C24.0239 74.8232 24.7232 74.11 25.5864 74.11C26.4497 74.11 27.1489 74.8232 27.1489 75.7038V75.6998ZM14.6489 75.6998V77.6681V77.6641C14.6489 78.5447 13.9497 79.2579 13.0864 79.2579C12.2232 79.2579 11.5239 78.5447 11.5239 77.6641V75.7038C11.5239 74.8232 12.2232 74.11 13.0864 74.11C13.9497 74.11 14.6489 74.8232 14.6489 75.7038V75.6998ZM20.8989 85.617V87.5853V87.5813C20.8989 88.4618 20.1997 89.175 19.3364 89.175C18.4732 89.175 17.7739 88.4618 17.7739 87.5813V85.617C17.7739 84.7364 18.4732 84.0232 19.3364 84.0232C20.1997 84.0232 20.8989 84.7364 20.8989 85.617ZM27.1489 85.617V87.5853V87.5813C27.1489 88.4618 26.4497 89.175 25.5864 89.175C24.7232 89.175 24.0239 88.4618 24.0239 87.5813V85.617C24.0239 84.7364 24.7232 84.0232 25.5864 84.0232C26.4497 84.0232 27.1489 84.7364 27.1489 85.617ZM14.6489 85.617V87.5853V87.5813C14.6489 88.4618 13.9497 89.175 13.0864 89.175C12.2232 89.175 11.5239 88.4618 11.5239 87.5813V85.617C11.5239 84.7364 12.2232 84.0232 13.0864 84.0232C13.9497 84.0232 14.6489 84.7364 14.6489 85.617ZM78.2819 51.4592V49.4909C78.2819 48.6104 78.9812 47.8972 79.8444 47.8972C80.7077 47.8972 81.4069 48.6104 81.4069 49.4909V51.4592C81.4069 52.3398 80.7077 53.053 79.8444 53.053C78.9812 53.053 78.2819 52.3398 78.2819 51.4592ZM84.5319 51.4592V49.4909C84.5319 48.6104 85.2312 47.8972 86.0944 47.8972C86.9577 47.8972 87.6569 48.6104 87.6569 49.4909V51.4592C87.6569 52.3398 86.9577 53.053 86.0944 53.053C85.2312 53.053 84.5319 52.3398 84.5319 51.4592ZM72.0319 51.4592V49.4909C72.0319 48.6104 72.7312 47.8972 73.5944 47.8972C74.4577 47.8972 75.1569 48.6104 75.1569 49.4909V51.4592C75.1569 52.3398 74.4577 53.053 73.5944 53.053C72.7312 53.053 72.0319 52.3398 72.0319 51.4592ZM78.2819 61.3764V59.4081C78.2819 58.5275 78.9812 57.8143 79.8444 57.8143C80.7077 57.8143 81.4069 58.5275 81.4069 59.4081V61.3764C81.4069 62.2569 80.7077 62.9701 79.8444 62.9701C78.9812 62.9701 78.2819 62.2569 78.2819 61.3764ZM84.5319 61.3764V59.4081C84.5319 58.5275 85.2312 57.8143 86.0944 57.8143C86.9577 57.8143 87.6569 58.5275 87.6569 59.4081V61.3764C87.6569 62.2569 86.9577 62.9701 86.0944 62.9701C85.2312 62.9701 84.5319 62.2569 84.5319 61.3764ZM72.0319 61.3764V59.4081C72.0319 58.5275 72.7312 57.8143 73.5944 57.8143C74.4577 57.8143 75.1569 58.5275 75.1569 59.4081V61.3764C75.1569 62.2569 74.4577 62.9701 73.5944 62.9701C72.7312 62.9701 72.0319 62.2569 72.0319 61.3764ZM78.2819 71.2895V69.3292C78.2819 68.4487 78.9812 67.7355 79.8444 67.7355C80.7077 67.7355 81.4069 68.4487 81.4069 69.3292V71.2975C81.4069 72.178 80.7077 72.8912 79.8444 72.8912C78.9812 72.8912 78.2819 72.178 78.2819 71.2975V71.2895ZM84.5319 71.2895V69.3292C84.5319 68.4487 85.2312 67.7355 86.0944 67.7355C86.9577 67.7355 87.6569 68.4487 87.6569 69.3292V71.2975C87.6569 72.178 86.9577 72.8912 86.0944 72.8912C85.2312 72.8912 84.5319 72.178 84.5319 71.2975V71.2895ZM72.0319 71.2895V69.3292C72.0319 68.4487 72.7312 67.7355 73.5944 67.7355C74.4577 67.7355 75.1569 68.4487 75.1569 69.3292V71.2975C75.1569 72.178 74.4577 72.8912 73.5944 72.8912C72.7312 72.8912 72.0319 72.178 72.0319 71.2975V71.2895ZM78.2819 80.852V78.8917C78.2819 78.0112 78.9812 77.298 79.8444 77.298C80.7077 77.298 81.4069 78.0112 81.4069 78.8917V80.86C81.4069 81.7405 80.7077 82.4537 79.8444 82.4537C78.9812 82.4537 78.2819 81.7405 78.2819 80.86V80.852ZM84.5319 80.852V78.8917C84.5319 78.0112 85.2312 77.298 86.0944 77.298C86.9577 77.298 87.6569 78.0112 87.6569 78.8917V80.86C87.6569 81.7405 86.9577 82.4537 86.0944 82.4537C85.2312 82.4537 84.5319 81.7405 84.5319 80.86V80.852ZM72.0319 80.852V78.8917C72.0319 78.0112 72.7312 77.298 73.5944 77.298C74.4577 77.298 75.1569 78.0112 75.1569 78.8917V80.86C75.1569 81.7405 74.4577 82.4537 73.5944 82.4537C72.7312 82.4537 72.0319 81.7405 72.0319 80.86V80.852Z" fill="black"/>
<path d="M41.4496 30.4731C40.5863 30.4731 39.8871 31.1863 39.8871 32.0669C39.8871 32.9474 40.5863 33.6606 41.4496 33.6606H56.3556C57.2188 33.6606 57.9181 32.9474 57.9181 32.0669C57.9181 31.1863 57.2188 30.4731 56.3556 30.4731H41.4496Z" fill="#1DBBFF"/>
<path d="M39.8871 40.4859V40.4898L39.887 40.4819C39.8831 40.9042 40.0472 41.3106 40.3441 41.6134C40.6371 41.9123 41.0355 42.0796 41.4496 42.0796H56.3556C57.2188 42.0796 57.9181 41.3664 57.9181 40.4859C57.9181 39.6053 57.2188 38.8921 56.3556 38.8921H41.4496C40.5863 38.8921 39.8871 39.6053 39.8871 40.4859Z" fill="#1DBBFF"/>
<path d="M41.4496 47.3151C40.5863 47.3151 39.8871 48.0283 39.8871 48.9088C39.8871 49.7894 40.5863 50.5026 41.4496 50.5026H56.3556C57.2188 50.5026 57.9181 49.7894 57.9181 48.9088C57.9181 48.0283 57.2188 47.3151 56.3556 47.3151H41.4496Z" fill="#1DBBFF"/>
<path d="M41.4496 55.734C40.5863 55.734 39.8871 56.4472 39.8871 57.3278C39.8871 58.2083 40.5863 58.9215 41.4496 58.9215H56.3556C57.2188 58.9215 57.9181 58.2083 57.9181 57.3278C57.9181 56.4472 57.2188 55.734 56.3556 55.734H41.4496Z" fill="#1DBBFF"/>
<path d="M41.4496 64.157C40.5863 64.157 39.8871 64.8702 39.8871 65.7507C39.8871 66.6313 40.5863 67.3445 41.4496 67.3445H56.3556C57.2188 67.3445 57.9181 66.6313 57.9181 65.7507C57.9181 64.8702 57.2188 64.157 56.3556 64.157H41.4496Z" fill="#1DBBFF"/>
<path d="M41.4496 72.58C40.5863 72.58 39.8871 73.2932 39.8871 74.1737C39.8871 75.0543 40.5863 75.7675 41.4496 75.7675H56.3556C57.2188 75.7675 57.9181 75.0543 57.9181 74.1737C57.9181 73.2932 57.2188 72.58 56.3556 72.58H41.4496Z" fill="#1DBBFF"/>
<path d="M41.4496 80.9989C40.5863 80.9989 39.8871 81.7121 39.8871 82.5927C39.8871 83.4732 40.5863 84.1864 41.4496 84.1864H56.3556C57.2188 84.1864 57.9181 83.4732 57.9181 82.5927C57.9181 81.7121 57.2188 80.9989 56.3556 80.9989H41.4496Z" fill="#1DBBFF"/>
<path d="M41.4496 89.4179C40.5863 89.4179 39.8871 90.1311 39.8871 91.0117C39.8871 91.8922 40.5863 92.6054 41.4496 92.6054H56.3556C57.2188 92.6054 57.9181 91.8922 57.9181 91.0117C57.9181 90.1311 57.2188 89.4179 56.3556 89.4179H41.4496Z" fill="#1DBBFF"/>
</svg>
