<svg width="100" height="100" viewBox="0 0 100 100" fill="none" xmlns="http://www.w3.org/2000/svg">
<circle cx="50" cy="50" r="50" fill="#F0F9FC"/>
<path d="M36.9447 46.7988C34.2188 46.7988 32 44.6005 32 41.9003C32 39.1984 34.2189 37 36.9447 37C39.6707 37 41.8894 39.1983 41.8894 41.9003C41.8877 44.6021 39.6705 46.7988 36.9447 46.7988ZM36.9447 38.375C34.9767 38.375 33.3749 39.9563 33.3749 41.9001C33.3749 43.844 34.9767 45.4236 36.9447 45.4236C38.9127 45.4236 40.5146 43.8423 40.5146 41.9001C40.5129 39.9562 38.9127 38.375 36.9447 38.375V38.375Z" fill="#00597E"/>
<path d="M39.4209 61.0125H30.7978C29.8061 61.0125 29 60.2115 29 59.2267V56.9785C29 52.3739 32.783 48.6287 37.4322 48.6287C39.2609 48.6287 41.002 49.1993 42.4649 50.2787C42.7708 50.5038 42.8361 50.9352 42.6093 51.2394C42.3841 51.5454 41.9544 51.6107 41.6485 51.3838C40.423 50.4798 38.9655 50.002 37.4324 50.002C33.5411 50.0037 30.3752 53.1335 30.3752 56.9782V59.2263C30.3752 59.4532 30.5643 59.6371 30.798 59.6371H39.4229C39.8028 59.6371 40.1104 59.9447 40.1104 60.3246C40.1087 60.7044 39.8011 61.0121 39.4212 61.0121L39.4209 61.0125Z" fill="#00597E"/>
<path d="M69.8275 60.4934H61.2044C60.8246 60.4934 60.5169 60.1857 60.5169 59.8059C60.5169 59.4261 60.8246 59.1184 61.2044 59.1184H69.8293C70.0613 59.1184 70.2521 58.9345 70.2521 58.7076V56.4595C70.2521 52.6129 67.0862 49.4846 63.1949 49.4846C61.569 49.4846 59.9826 50.0449 58.7281 51.0607C58.4324 51.2996 58.001 51.2549 57.7604 50.9593C57.5215 50.6637 57.5662 50.2306 57.8618 49.9916C59.3605 48.7782 61.2546 48.1096 63.1933 48.1096C67.8423 48.1096 71.6255 51.8548 71.6255 56.4595V58.7076C71.6255 59.6925 70.8194 60.4934 69.8277 60.4934L69.8275 60.4934Z" fill="#00597E"/>
<path d="M63.1928 47.1093C60.4668 47.1093 58.248 44.9111 58.248 42.2108C58.248 39.509 60.4653 37.3105 63.1928 37.3105C65.9187 37.3105 68.1375 39.5088 68.1375 42.2108C68.1375 44.911 65.9203 47.1093 63.1928 47.1093ZM63.1928 38.6855C61.2248 38.6855 59.6229 40.2668 59.6229 42.2107C59.6229 44.1546 61.2248 45.7341 63.1928 45.7341C65.1608 45.7341 66.7626 44.1529 66.7626 42.2107C66.7626 40.2668 65.1625 38.6855 63.1928 38.6855V38.6855Z" fill="#00597E"/>
<path d="M59.6437 63.2505H40.9815C39.7423 63.2505 38.7334 62.2502 38.7334 61.0195V57.857C38.7334 51.5355 43.9276 46.3928 50.3124 46.3928C56.6973 46.3928 61.8915 51.5355 61.8915 57.857V61.0195C61.8915 62.2502 60.8826 63.2505 59.6433 63.2505H59.6437ZM50.3126 47.7677C44.6855 47.7677 40.1086 52.2931 40.1086 57.8569V61.0194C40.1086 61.4921 40.5004 61.8754 40.9817 61.8754H59.6439C60.1251 61.8754 60.517 61.4904 60.517 61.0194V57.8569C60.517 52.2931 55.9401 47.7677 50.313 47.7677H50.3126Z" fill="#00597E"/>
<path d="M50.0736 45.5884C46.5708 45.5884 43.7196 42.7645 43.7196 39.2942C43.7196 35.8241 46.5693 33 50.0736 33C53.5782 33 56.4277 35.8239 56.4277 39.2942C56.4277 42.7661 53.5763 45.5884 50.0736 45.5884ZM50.0736 34.3754C47.3288 34.3754 45.0946 36.5823 45.0946 39.2946C45.0946 42.0068 47.329 44.2138 50.0736 44.2138C52.8183 44.2138 55.0527 42.007 55.0527 39.2946C55.0527 36.5824 52.8183 34.3754 50.0736 34.3754Z" fill="#00597E"/>
</svg>
