<svg width="98" height="100" viewBox="0 0 98 100" fill="none" xmlns="http://www.w3.org/2000/svg">
<ellipse cx="48.8313" cy="50" rx="48.8313" ry="50" fill="#F0F9FC"/>
<path d="M51.4631 34.7466C51.1383 35.0715 51.14 35.5991 51.4648 35.924C51.7897 36.2488 52.3156 36.2488 52.6422 35.9257C53.3778 35.2227 54.5345 35.2227 55.2702 35.9257C55.9972 36.651 55.9972 37.8284 55.2702 38.5537L53.0152 40.8104C52.8588 40.9668 52.7711 41.1782 52.7711 41.3982V43.3043C52.7711 43.7649 53.1441 44.1379 53.6047 44.1379C54.0653 44.1379 54.4383 43.7649 54.4383 43.3043V41.7437L56.4492 39.7327C57.8259 38.356 57.8259 36.1234 56.4492 34.7466C55.0725 33.3699 52.8398 33.3699 51.4631 34.7466L51.4631 34.7466Z" fill="#00597E"/>
<path d="M56.1724 57.5718C55.7307 57.4412 55.2683 57.6921 55.136 58.1321C54.0205 61.8721 51.1553 64.8333 47.4567 66.0728C43.7562 67.312 39.6845 66.6726 36.5425 64.3592L36.3809 64.2406L36.185 64.208C34.1929 63.878 32.1528 63.9742 30.2001 64.4881L32.474 59.0656L32.364 58.7596L32.3657 58.7613C31.4668 56.2606 31.4239 53.5328 32.2437 51.0046C33.0618 48.4763 34.6981 46.2935 36.8927 44.7966C37.1488 44.6196 37.441 44.4374 37.7607 44.2535H37.7624C38.1612 44.0232 38.2987 43.5144 38.0701 43.1157C37.8415 42.7169 37.331 42.5777 36.9323 42.808C36.5679 43.0177 36.2465 43.2188 35.9509 43.4216C33.4982 45.0957 31.6574 47.5225 30.7087 50.3362C29.7582 53.1498 29.7514 56.197 30.6881 59.0143L28.2457 64.8408C28.0704 65.2533 28.1529 65.7311 28.4554 66.0611C28.7596 66.3928 29.2271 66.5166 29.6551 66.3774C31.6042 65.7174 33.6821 65.5266 35.7188 65.8222C39.3075 68.3831 43.912 69.0535 48.0819 67.6217C52.2516 66.19 55.4743 62.8332 56.7323 58.6088C56.8646 58.167 56.612 57.703 56.172 57.5723L56.1724 57.5718Z" fill="#00597E"/>
<path d="M69.7539 51.3999L67.3098 45.5717H67.3115C68.702 41.4089 68.0162 36.832 65.4656 33.2605C62.915 29.689 58.8088 27.5541 54.4194 27.518C50.0314 27.4819 45.8909 29.5513 43.2821 33.0801C40.6748 36.6104 39.9134 41.1752 41.2368 45.3605C42.5602 49.5456 45.8071 52.844 49.9717 54.2326C54.1345 55.6214 58.7114 54.9322 62.2816 52.3798C64.3166 52.0859 66.3928 52.2784 68.3386 52.9384C68.7666 53.0776 69.2358 52.9539 69.54 52.6239C69.8443 52.2922 69.9285 51.8161 69.7549 51.4002L69.7539 51.3999ZM61.815 50.7657L61.6173 50.7984L61.4557 50.917H61.4574C58.362 53.2029 54.3554 53.8629 50.6911 52.6907C47.025 51.5185 44.1443 48.6585 42.948 45.0008C41.75 41.3433 42.3825 37.3334 44.6461 34.2208C46.9097 31.1082 50.5311 29.2726 54.3793 29.2862C58.2775 29.2862 61.9333 31.1854 64.1729 34.377C66.4141 37.5687 66.9589 41.6506 65.6355 45.3185L65.5255 45.6244L67.7994 51.0505V51.0488C65.8469 50.5349 63.8085 50.4369 61.8163 50.7652L61.815 50.7657Z" fill="#00597E"/>
</svg>
