<svg width="98" height="100" viewBox="0 0 98 100" fill="none" xmlns="http://www.w3.org/2000/svg">
<ellipse cx="48.8313" cy="50" rx="48.8313" ry="50" fill="#F0F9FC"/>
<path d="M49.5943 43.3549L49.1046 43.2014C48.0553 42.7409 47.006 42.2036 46.8661 41.2825C46.7961 40.5917 47.2858 39.8241 47.9853 39.5939C48.7548 39.3636 49.8741 39.4403 50.9233 39.9009C51.343 40.1312 51.9027 39.8241 52.0426 39.3636C52.2524 38.903 51.9726 38.289 51.5529 38.1354C50.9933 37.9052 50.3637 37.7517 49.8041 37.5981V36.677C49.8041 36.1397 49.3844 35.6792 48.8947 35.6792C48.4051 35.6792 47.9854 36.1397 47.9854 36.677V37.5981C47.7755 37.5981 47.5657 37.6749 47.4258 37.7516C45.8868 38.2122 44.9075 39.9008 45.1174 41.5127C45.3972 43.6619 47.4258 44.5063 48.4751 44.9668L48.9648 45.1971C49.5943 45.4273 50.1539 45.6576 50.5737 46.0414C50.9234 46.4252 51.0634 46.809 51.0634 47.2695C51.0634 47.7301 50.8535 48.1906 50.5037 48.4977C50.084 48.8814 49.5244 49.1117 48.8249 49.1884C48.2653 49.1884 47.5658 49.1884 46.7963 48.9582C46.5864 48.8814 46.3766 48.8814 46.2367 48.8047C45.747 48.6511 45.2574 48.9582 45.1174 49.4187C44.9775 49.956 45.2574 50.4933 45.6771 50.6468C45.8869 50.7236 46.1668 50.8004 46.4466 50.8004C47.0062 50.8771 47.4959 50.9539 47.9855 51.0306V51.875C47.9855 52.4123 48.4052 52.8728 48.8949 52.8728C49.3845 52.8728 49.8042 52.4123 49.8042 51.875V50.8772C50.5737 50.7236 51.2033 50.3398 51.693 49.8026C52.3925 49.1118 52.8122 48.1907 52.8122 47.1928C52.8122 46.1949 52.4624 45.2739 51.7629 44.5063C51.1333 43.9689 50.2939 43.6619 49.5943 43.3549L49.5943 43.3549Z" fill="#00597E"/>
<path d="M68.7615 61.3943H29.1683C28.6786 61.3943 28.2589 61.8548 28.2589 62.392C28.2589 62.9292 28.6786 63.3896 29.1683 63.3896H68.6912C69.1809 63.3896 69.6005 62.9292 69.6005 62.392C69.6005 61.8548 69.2508 61.3943 68.7611 61.3943H68.7615Z" fill="#00597E"/>
<path d="M68.7615 66.3069H29.1683C28.6786 66.3069 28.2589 66.7674 28.2589 67.3047C28.2589 67.842 28.6786 68.3025 29.1683 68.3025H68.6912C69.1809 68.3025 69.6005 67.842 69.6005 67.3047C69.6005 66.7674 69.2508 66.3069 68.7611 66.3069H68.7615Z" fill="#00597E"/>
<path d="M66.9425 30H30.9873C28.8187 30 27 31.919 27 34.3753V54.3327C27 56.7123 28.7488 58.708 30.9873 58.708H67.0127C69.1813 58.708 71 56.789 71 54.3327V34.3753C70.93 31.9957 69.1812 30 66.9428 30H66.9425ZM69.1809 54.3326C69.1809 55.7143 68.2016 56.7889 66.9425 56.7889H30.9873C29.7281 56.7889 28.7488 55.7143 28.7488 54.3326V34.3752C28.7488 32.9935 29.7281 31.9189 30.9873 31.9189H67.0127C68.2719 31.9189 69.2512 32.9935 69.2512 34.3752V54.3326H69.1809Z" fill="#00597E"/>
</svg>
