<svg width="100" height="100" viewBox="0 0 100 100" fill="none" xmlns="http://www.w3.org/2000/svg">
<circle cx="50" cy="50" r="50" fill="#F0F9FC"/>
<path d="M72.7142 62.4475V36.4C73.8829 36.4 74.8282 35.4547 74.8282 34.2859C74.8282 33.1171 73.8829 32.1718 72.7142 32.1718H33.2862C32.1175 32.1718 31.1721 33.1171 31.1721 34.2859C31.1721 35.4547 32.1174 36.4 33.2862 36.4V62.4563C32.1175 62.4477 31.1721 63.3931 31.1721 64.5618C31.1721 65.7306 32.1174 66.6759 33.2862 66.6759H52.2955V73.0097H43.1431V75.8284H44.5524V74.4191H52.2956V75.8284H53.7049V74.4191H61.448V75.8284H62.8574V73.0097H53.705V66.6759H72.7143C73.883 66.6759 74.8284 65.7306 74.8284 64.5618C74.8284 63.3931 73.8831 62.4478 72.7143 62.4478L72.7142 62.4475ZM32.5813 34.2858C32.5813 33.8991 32.8993 33.5811 33.286 33.5811H72.714C73.1007 33.5811 73.4187 33.899 73.4187 34.2858C73.4187 34.6725 73.1007 34.9905 72.714 34.9905H33.286C32.8993 34.9905 32.5813 34.6725 32.5813 34.2858V34.2858ZM34.6954 36.3998H71.3047V62.4562H34.6954V36.3998ZM72.714 65.266H33.2861C32.8993 65.266 32.5814 64.9481 32.5814 64.5613C32.5814 64.1746 32.8993 63.8566 33.2861 63.8566H72.714C73.1007 63.8566 73.4187 64.1746 73.4187 64.5613C73.4187 64.9481 73.1008 65.266 72.714 65.266Z" fill="#00597E"/>
<path d="M67.7897 45.5524H69.199V60.3422H67.7897V45.5524Z" fill="#00597E"/>
<path d="M64.2661 47.6662H65.6755V60.3422H64.2661V47.6662Z" fill="#00597E"/>
<path d="M60.743 49.772H62.1524V60.3337H60.743V49.772Z" fill="#00597E"/>
<path d="M57.2279 51.8857H58.6373V60.3333H57.2279V51.8857Z" fill="#00597E"/>
<path d="M53.7048 54H55.1142V60.3338H53.7048V54Z" fill="#00597E"/>
<path d="M36.8009 54H52.2955V38.5054H36.8009V54ZM38.2103 39.9148H50.8862V52.5907H38.2103V39.9148Z" fill="#00597E"/>
<path d="M45.2568 46.6696L43.1427 44.5556L39.1208 48.5774L40.1177 49.5657L43.1427 46.5493L45.2568 48.6548L49.9749 43.9367L48.978 42.9398L45.2568 46.6696Z" fill="#00597E"/>
</svg>
