<svg width="98" height="100" viewBox="0 0 98 100" fill="none" xmlns="http://www.w3.org/2000/svg">
<ellipse cx="48.8313" cy="50" rx="48.8313" ry="50" fill="#F0F9FC"/>
<path d="M49.426 28C38.6936 28 30 36.6977 30 47.4337C30 56.3493 35.9779 63.8856 44.166 66.1782H44.2139C45.3611 67.851 46.3564 68.8862 46.3564 71.4884C46.3564 71.7702 46.5862 72 46.868 72H61.8173C62.0311 72 62.223 71.8641 62.2969 71.6642C63.48 68.4546 64.2954 66.3024 64.2635 64.3075C64.2415 63.0345 63.9197 61.9453 63.3522 60.9959C66.7697 57.4905 68.8839 52.7137 68.8839 47.4337C68.8839 36.6977 60.1581 28 49.4262 28L49.426 28ZM49.426 28.9913C59.6048 28.9913 67.8446 37.2515 67.8446 47.4319C67.8446 52.3663 65.916 56.855 62.7603 60.1627C62.2807 59.5792 61.6951 59.0435 61.0176 58.5479C60.3201 58.0363 59.5127 57.5487 58.6193 57.061C61.1555 54.6368 62.7443 51.2152 62.7443 47.4322C62.7443 40.0893 56.7665 34.1416 49.4262 34.1416C42.0858 34.1416 36.1397 40.0893 36.1397 47.4322C36.1397 51.9229 38.3721 55.8981 41.7835 58.3084C41.9194 61.4101 42.6049 63.3727 43.3983 64.8337C36.1817 62.3415 30.9913 55.5067 30.9913 47.4322C30.9913 37.2498 39.2474 28.9916 49.4257 28.9916L49.426 28.9913ZM49.426 35.1329C56.2133 35.1329 61.7051 40.6431 61.7051 47.4319C61.7051 51.0453 60.1402 54.2851 57.66 56.5332C57.654 56.5372 57.6501 56.5432 57.6441 56.5492C56.273 55.8417 54.7302 55.1043 53.0074 54.2629V53.6233C53.0634 53.6113 53.1173 53.5893 53.1673 53.5594C55.2238 52.3003 56.5888 50.0179 56.5888 47.4336C56.5888 43.4825 53.3752 40.2688 49.426 40.2688C45.4769 40.2688 42.2632 43.4824 42.2632 47.4336C42.2632 50.0797 43.6902 52.4 45.8287 53.6392C45.8347 53.6432 45.8387 53.6492 45.8447 53.6552V56.647H42.2633V56.645C42.0294 56.645 41.8256 56.8029 41.7676 57.0287C38.9557 54.7764 37.131 51.319 37.131 47.4316C37.131 40.6408 42.6392 35.1326 49.4259 35.1326L49.426 35.1329ZM49.426 41.2903C52.8235 41.2903 55.5655 44.0343 55.5655 47.4319C55.5655 49.4884 54.5543 51.2911 53.0074 52.4063V48.4551C53.0074 46.4786 51.4006 44.8717 49.426 44.8717C47.4514 44.8717 45.8446 46.4786 45.8446 48.4551V52.4063C44.3017 51.2911 43.2865 49.4864 43.2865 47.4319C43.2865 44.0344 46.0285 41.2903 49.426 41.2903V41.2903ZM49.426 45.8969C50.853 45.8969 51.9841 47.0301 51.9841 48.4551V54.5829C51.9821 54.7787 52.0941 54.9586 52.2719 55.0465C55.7834 56.7713 58.5711 58.0224 60.4263 59.3814C62.2814 60.7404 63.2042 62.1194 63.2402 64.3398C63.2662 65.9626 62.5507 67.9891 61.4495 70.9771H47.3317C47.1818 68.419 46.0326 67.054 44.9813 65.5073C43.9041 63.9205 42.8929 61.9379 42.8069 57.6712H46.3563V57.6692C46.6381 57.6692 46.868 57.4394 46.868 57.1576V48.4558C46.868 47.0288 47.9991 45.8977 49.4261 45.8977L49.426 45.8969Z" fill="#00597E"/>
</svg>
