<svg width="98" height="100" viewBox="0 0 98 100" fill="none" xmlns="http://www.w3.org/2000/svg">
<ellipse cx="48.8313" cy="50" rx="48.8313" ry="50" fill="#F0F9FC"/>
<path d="M49.426 24C38.6936 24 30 32.6977 30 43.4337C30 52.3493 35.9779 59.8856 44.166 62.1782H44.2139C45.3611 63.851 46.3564 64.8862 46.3564 67.4884C46.3564 67.7702 46.5862 68 46.868 68H61.8173C62.0311 68 62.223 67.8641 62.2969 67.6642C63.48 64.4546 64.2954 62.3024 64.2635 60.3075C64.2415 59.0345 63.9197 57.9453 63.3522 56.9959C66.7697 53.4905 68.8839 48.7137 68.8839 43.4337C68.8839 32.6977 60.1581 24 49.4262 24L49.426 24ZM49.426 24.9913C59.6048 24.9913 67.8446 33.2515 67.8446 43.4319C67.8446 48.3663 65.916 52.855 62.7603 56.1627C62.2807 55.5792 61.6951 55.0435 61.0176 54.5479C60.3201 54.0363 59.5127 53.5487 58.6193 53.061C61.1555 50.6368 62.7443 47.2152 62.7443 43.4322C62.7443 36.0893 56.7665 30.1416 49.4262 30.1416C42.0858 30.1416 36.1397 36.0893 36.1397 43.4322C36.1397 47.9229 38.3721 51.8981 41.7835 54.3084C41.9194 57.4101 42.6049 59.3727 43.3983 60.8337C36.1817 58.3415 30.9913 51.5067 30.9913 43.4322C30.9913 33.2498 39.2474 24.9916 49.4257 24.9916L49.426 24.9913ZM49.426 31.1329C56.2133 31.1329 61.7051 36.6431 61.7051 43.4319C61.7051 47.0453 60.1402 50.2851 57.66 52.5332C57.654 52.5372 57.6501 52.5432 57.6441 52.5492C56.273 51.8417 54.7302 51.1043 53.0074 50.2629V49.6233C53.0634 49.6113 53.1173 49.5893 53.1673 49.5594C55.2238 48.3003 56.5888 46.0179 56.5888 43.4336C56.5888 39.4825 53.3752 36.2688 49.426 36.2688C45.4769 36.2688 42.2632 39.4824 42.2632 43.4336C42.2632 46.0797 43.6902 48.4 45.8287 49.6392C45.8347 49.6432 45.8387 49.6492 45.8447 49.6552V52.647H42.2633V52.645C42.0294 52.645 41.8256 52.8029 41.7676 53.0287C38.9557 50.7764 37.131 47.319 37.131 43.4316C37.131 36.6408 42.6392 31.1326 49.4259 31.1326L49.426 31.1329ZM49.426 37.2903C52.8235 37.2903 55.5655 40.0343 55.5655 43.4319C55.5655 45.4884 54.5543 47.2911 53.0074 48.4063V44.4551C53.0074 42.4786 51.4006 40.8717 49.426 40.8717C47.4514 40.8717 45.8446 42.4786 45.8446 44.4551V48.4063C44.3017 47.2911 43.2865 45.4864 43.2865 43.4319C43.2865 40.0344 46.0285 37.2903 49.426 37.2903V37.2903ZM49.426 41.8969C50.853 41.8969 51.9841 43.0301 51.9841 44.4551V50.5829C51.9821 50.7787 52.0941 50.9586 52.2719 51.0465C55.7834 52.7713 58.5711 54.0224 60.4263 55.3814C62.2814 56.7404 63.2042 58.1194 63.2402 60.3398C63.2662 61.9626 62.5507 63.9891 61.4495 66.9771H47.3317C47.1818 64.419 46.0326 63.054 44.9813 61.5073C43.9041 59.9205 42.8929 57.9379 42.8069 53.6712H46.3563V53.6692C46.6381 53.6692 46.868 53.4394 46.868 53.1576V44.4558C46.868 43.0288 47.9991 41.8977 49.4261 41.8977L49.426 41.8969Z" fill="#00597E"/>
</svg>
