<svg width="80" height="80" viewBox="0 0 80 80" fill="none" xmlns="http://www.w3.org/2000/svg">
<path d="M39.928 4.88135C30.4968 4.88135 21.4528 8.62511 14.784 15.2941C8.11529 21.966 4.36801 31.0101 4.36801 40.4413C4.36801 49.8725 8.11489 58.9165 14.784 65.5853C21.4527 72.2541 30.4968 76.0014 39.928 76.0014C49.3592 76.0014 58.4032 72.2545 65.072 65.5853C71.7407 58.9166 75.488 49.8725 75.488 40.4413C75.4849 31.0101 71.738 21.9661 65.072 15.2973C58.4033 8.62863 49.3592 4.88135 39.928 4.88135ZM39.928 72.2973C31.4784 72.2973 23.3776 68.9411 17.4032 62.9662C11.4288 56.9912 8.07201 48.8877 8.07201 40.4413C8.07201 31.9917 11.4283 23.8885 17.4032 17.9165C23.3783 11.9415 31.4784 8.58535 39.928 8.58535C48.3776 8.58535 56.4784 11.9416 62.4528 17.9165C68.4279 23.8884 71.784 31.9917 71.784 40.4413C71.7715 48.8853 68.4122 56.9821 62.44 62.9541C56.4682 68.9229 48.3712 72.2853 39.9272 72.2981L39.928 72.2973Z" fill="black"/>
<path d="M41.7032 38.9593V28.8001C43.6376 29.1157 45.4532 29.9438 46.9594 31.2001C47.5532 31.7532 48.4844 31.7188 49.0376 31.1251C49.5876 30.5313 49.5532 29.6001 48.9595 29.0469C46.9251 27.25 44.3908 26.1125 41.697 25.7907V23.1032C41.697 22.2876 41.0345 21.625 40.2157 21.625C39.4001 21.625 38.7376 22.2875 38.7376 23.1032V25.7656C33.6969 26.2844 30.1472 29.6219 30.1472 33.9904C30.1472 38.878 35.7472 40.4373 38.7376 41.1904V52.44C36.4407 51.9213 33.2563 50.5838 31.9938 49.3994H31.9907C31.4188 48.8275 30.4907 48.8275 29.9188 49.3994C29.347 49.9713 29.347 50.8994 29.9188 51.4712C31.6939 53.2463 35.847 54.9525 38.7188 55.3994V57.8463C38.7188 58.665 39.3813 59.3276 40.2001 59.3276C41.0189 59.3276 41.6814 58.6651 41.6814 57.8463V55.4463C45.4564 54.9994 50.2718 52.7838 50.2718 47.7432C50.3999 43.8463 47.2624 40.6619 41.703 38.9592L41.7032 38.9593ZM38.7438 38.1593C36.3438 37.4968 33.1438 36.3842 33.1438 34.0062C33.1438 30.8937 35.8876 29.2062 38.7438 28.7499V38.1435V38.1593ZM41.7032 52.5593V42.0721C44.3657 43.0314 47.3032 44.8158 47.3032 47.8471C47.4095 51.1127 43.7845 52.144 41.7032 52.5127V52.5593Z" fill="#1DBBFF"/>
</svg>
