<svg width="72" height="80" viewBox="0 0 72 80" fill="none" xmlns="http://www.w3.org/2000/svg">
<path d="M36 18.9376C39.6625 18.9376 42.9656 16.7282 44.3656 13.347C45.7687 9.96256 44.9937 6.06567 42.4031 3.47495C39.8125 0.887435 35.9187 0.112475 32.5343 1.51248C29.1499 2.9156 26.9437 6.21871 26.9437 9.88127C26.9531 14.8782 31.003 18.9285 35.9997 18.9373L36 18.9376ZM36 4.79999C38.0531 4.79999 39.9062 6.03751 40.6938 7.93751C41.4781 9.83439 41.0438 12.0188 39.5906 13.4719C38.1406 14.925 35.9531 15.3594 34.0562 14.5719C32.1562 13.7875 30.9187 11.9344 30.9187 9.88127C30.925 7.07503 33.1969 4.80311 36 4.79999V4.79999Z" fill="black"/>
<path d="M20.656 29.8V29.8719L22.4873 41.8719C22.756 44.1844 24.1091 46.2344 26.1373 47.3844L29.0748 67.3844H29.0717C29.3435 69.6125 31.2342 71.2875 33.481 71.2875H38.506H38.5029C40.7498 71.2875 42.6404 69.6124 42.9122 67.3844L45.8497 47.3844H45.8466C47.8716 46.2344 49.2279 44.1844 49.4966 41.8719L51.3279 29.8719V29.8C51.5904 27.4531 50.8435 25.1031 49.2717 23.3406C47.6998 21.575 45.4498 20.5656 43.0873 20.5594H40.7997C40.1029 20.5594 39.4404 20.8781 39.0091 21.425L35.9997 25.1374L33.031 21.4343V21.4312C32.5904 20.8718 31.9123 20.5468 31.1997 20.5594H28.881C26.5185 20.5687 24.2748 21.5843 22.706 23.3469C21.1373 25.1094 20.3935 27.4562 20.656 29.8L20.656 29.8ZM25.681 25.9844C26.4903 25.0657 27.656 24.5375 28.881 24.5375H30.3997L33.759 28.7375C34.2809 29.3969 35.0778 29.7813 35.9184 29.775H36.0309C36.8684 29.7782 37.6622 29.4 38.184 28.7438L41.5996 24.5375H43.1121C44.3434 24.5344 45.5152 25.0594 46.3371 25.975C47.1558 26.8906 47.5495 28.1126 47.4152 29.3375L45.5996 41.3279V41.4092C45.459 42.681 44.6059 43.7654 43.3996 44.1998C42.709 44.4561 42.2183 45.0716 42.1183 45.7998L38.9746 66.8158V66.8814C38.9496 67.1189 38.7496 67.2971 38.5121 67.2971H33.4871C33.2496 67.2971 33.0496 67.1189 33.0246 66.8814V66.8189L29.9277 45.7693C29.8277 45.0412 29.3371 44.4256 28.6465 44.1693C27.4402 43.735 26.5871 42.6506 26.4465 41.3756V41.2943L24.6152 29.2943V29.2975C24.4839 28.0912 24.8714 26.8881 25.6808 25.985L25.681 25.9844Z" fill="black"/>
<path d="M62.3032 69.416C62.3032 65.6004 57.6876 62.5691 49.3128 60.8784V60.8815C48.2346 60.6596 47.1815 61.3534 46.9597 62.4315C46.7409 63.5097 47.4347 64.5628 48.5128 64.7846C55.9128 66.2722 58.3032 68.544 58.3032 69.4159C58.3032 70.1284 56.775 71.6722 52.5657 73.0159H52.5688C47.1844 74.5566 41.6 75.2941 36 75.2003C30.3938 75.2941 24.8064 74.5597 19.416 73.0159C15.2066 71.6722 13.6785 70.1284 13.6785 69.4159C13.6785 68.5441 16.0785 66.2722 23.4689 64.7846H23.472C24.5502 64.5628 25.2438 63.5096 25.0251 62.4315C24.8033 61.3534 23.7501 60.6597 22.672 60.8815C14.3128 62.569 9.69681 65.6002 9.69681 69.4159C9.69681 71.5441 11.1686 74.5597 18.2 76.8066V76.8097C23.9813 78.4815 29.9816 79.2878 36 79.2003C42.0187 79.2847 48.0184 78.4753 53.8 76.8003C60.8 74.5597 62.3032 71.5534 62.3032 69.4159L62.3032 69.416Z" fill="#1DBBFF"/>
<path d="M58.272 16.9592C61.5376 16.9623 64.4845 14.9998 65.7345 11.981C66.9876 8.96544 66.3001 5.49352 63.9907 3.18424C61.6814 0.871762 58.2094 0.181122 55.1939 1.428C52.1752 2.678 50.2095 5.62176 50.2095 8.88736C50.2126 13.3405 53.8189 16.9498 58.2719 16.9594L58.272 16.9592ZM58.272 4.8C59.9251 4.8 61.4158 5.79688 62.0502 7.32496C62.6814 8.84992 62.3314 10.6094 61.1626 11.7781C59.9939 12.9468 58.2345 13.2968 56.7064 12.6656C55.1814 12.0312 54.1846 10.5406 54.1846 8.88744C54.1877 6.6312 56.0158 4.80304 58.2721 4.79992L58.272 4.8Z" fill="black"/>
<path d="M62.4 18.9592C61.7156 18.9561 61.0656 19.2686 60.6406 19.8092L58.2969 22.7374L55.9531 19.8092C55.2656 18.9374 54.0031 18.7874 53.1313 19.4749C52.2626 20.1624 52.1126 21.4249 52.8 22.2967L56.1282 26.4498V26.4467C56.6501 27.0779 57.4282 27.4436 58.2469 27.4436C59.0687 27.4436 59.8438 27.0779 60.3687 26.4467L63.2 22.9436H64.3687C65.3438 22.9436 66.275 23.3561 66.9281 24.0811C67.5844 24.8061 67.8999 25.7717 67.7999 26.7436L66.1999 37.062V37.1432C66.0875 38.1339 65.4249 38.9745 64.4875 39.3119C63.7968 39.5651 63.2999 40.1807 63.1999 40.9119L60.5593 59.7839C60.4093 60.8715 61.1656 61.8777 62.2562 62.0308H62.5374C63.525 62.0308 64.3656 61.2996 64.503 60.3183L67.0155 42.4871C68.7718 41.4371 69.9374 39.6309 70.1686 37.5996L71.7686 27.2716V27.1997C71.9999 25.0997 71.3249 22.9997 69.9155 21.4247C68.503 19.8529 66.4906 18.956 64.3749 18.9591L62.4 18.9592Z" fill="black"/>
<path d="M13.728 16.9594C16.9936 16.9594 19.9374 14.9938 21.1842 11.9781C22.4342 8.9594 21.7436 5.48748 19.4342 3.18132C17.128 0.871963 13.6561 0.181323 10.6374 1.43132C7.62184 2.68132 5.65616 5.62196 5.65616 8.88756C5.65928 13.3438 9.27176 16.9564 13.7282 16.9596L13.728 16.9594ZM13.728 4.8002C15.378 4.81583 16.8562 5.82204 17.4749 7.3502C18.0968 8.88148 17.7374 10.6315 16.5655 11.794C15.3937 12.9533 13.6374 13.2971 12.1155 12.6596C10.5906 12.0252 9.59992 10.5377 9.59992 8.88772C9.60304 7.79708 10.0374 6.75332 10.8124 5.9846C11.5874 5.21898 12.6374 4.79084 13.728 4.8002V4.8002Z" fill="black"/>
<path d="M0.256239 27.3032L1.83128 37.6C2.06878 39.625 3.2344 41.425 4.9844 42.4719L7.49688 60.3031C7.63438 61.2843 8.47504 62.0124 9.46248 62.0155H9.74373C10.8344 61.8624 11.5906 60.8562 11.4406 59.7687L8.79997 40.9031C8.69997 40.1718 8.20309 39.5562 7.51245 39.3031C6.57493 38.9656 5.91245 38.1249 5.79997 37.1375V37.0562L4.19997 26.7378C4.09997 25.766 4.41559 24.7972 5.07181 24.0722C5.72493 23.3503 6.65621 22.9347 7.63117 22.9378H8.79989L11.6092 26.4409C12.1092 27.0753 12.8717 27.4409 13.6811 27.4409H13.728C14.5498 27.4597 15.3373 27.0941 15.8467 26.4472L19.1998 22.2972C19.8154 21.4347 19.6498 20.244 18.8248 19.5816C17.9998 18.9222 16.803 19.0191 16.0966 19.8097L13.7529 22.7379L11.4154 19.8254C10.981 19.266 10.3091 18.9441 9.59976 18.9598H7.59976C5.49352 18.9692 3.4904 19.8691 2.08728 21.4411C0.684162 23.0129 0.0154422 25.1067 0.246642 27.2004L0.256239 27.3032Z" fill="black"/>
</svg>
