<svg width="80" height="80" viewBox="0 0 80 80" fill="none" xmlns="http://www.w3.org/2000/svg">
<g filter="url(#filter0_d)">
<path d="M39.56 0C30.1288 0 21.0848 3.74376 14.416 10.4128C7.74728 17.0846 4 26.1288 4 35.56C4 44.9912 7.74688 54.0352 14.416 60.704C21.0847 67.3727 30.1288 71.12 39.56 71.12C48.9912 71.12 58.0352 67.3731 64.704 60.704C71.3727 54.0353 75.12 44.9912 75.12 35.56C75.1169 26.1288 71.37 17.0848 64.704 10.416C58.0353 3.74728 48.9912 0 39.56 0V0ZM39.56 67.416C31.1104 67.416 23.0096 64.0598 17.0352 58.0848C11.0608 52.1098 7.704 44.0064 7.704 35.56C7.704 27.1104 11.0602 19.0072 17.0352 13.0352C23.0102 7.06016 31.1104 3.704 39.56 3.704C48.0096 3.704 56.1104 7.06024 62.0848 13.0352C68.0598 19.007 71.416 27.1104 71.416 35.56C71.4035 44.004 68.0442 52.1008 62.072 58.0728C56.1002 64.0415 48.0032 67.404 39.5592 67.4168L39.56 67.416Z" fill="black"/>
<path d="M41.3352 34.0779V23.9187C43.2696 24.2344 45.0852 25.0625 46.5914 26.3187C47.1852 26.8719 48.1164 26.8375 48.6696 26.2437C49.2196 25.65 49.1852 24.7188 48.5915 24.1656C46.5571 22.3687 44.0227 21.2312 41.329 20.9093V18.2218C41.329 17.4062 40.6665 16.7437 39.8477 16.7437C39.0321 16.7437 38.3695 17.4062 38.3695 18.2218V20.8843C33.3289 21.4031 29.7791 24.7405 29.7791 29.1091C29.7791 33.9966 35.3791 35.556 38.3695 36.3091V47.5587C36.0727 47.04 32.8883 45.7025 31.6258 44.5181H31.6227C31.0508 43.9462 30.1227 43.9462 29.5508 44.5181C28.9789 45.0899 28.9789 46.0181 29.5508 46.5899C31.3259 48.3649 35.479 50.0712 38.3508 50.5181V52.9649C38.3508 53.7837 39.0133 54.4462 39.8321 54.4462C40.6509 54.4462 41.3134 53.7837 41.3134 52.9649V50.5649C45.0884 50.1181 49.9038 47.9025 49.9038 42.8618C50.0319 38.9649 46.8944 35.7805 41.335 34.0778L41.3352 34.0779ZM38.3758 33.2779C35.9758 32.6155 32.7758 31.5029 32.7758 29.1248C32.7758 26.0123 35.5196 24.3248 38.3758 23.8686V33.2622V33.2779ZM41.3352 47.6779V37.1907C43.9977 38.1501 46.9352 39.9345 46.9352 42.9658C47.0414 46.2314 43.4165 47.2627 41.3352 47.6314V47.6779Z" fill="#1DBBFF"/>
</g>
<defs>
<filter id="filter0_d" x="0" y="0" width="79.12" height="79.12" filterUnits="userSpaceOnUse" color-interpolation-filters="sRGB">
<feFlood flood-opacity="0" result="BackgroundImageFix"/>
<feColorMatrix in="SourceAlpha" type="matrix" values="0 0 0 0 0 0 0 0 0 0 0 0 0 0 0 0 0 0 127 0"/>
<feOffset dy="4"/>
<feGaussianBlur stdDeviation="2"/>
<feColorMatrix type="matrix" values="0 0 0 0 0 0 0 0 0 0 0 0 0 0 0 0 0 0 0.25 0"/>
<feBlend mode="normal" in2="BackgroundImageFix" result="effect1_dropShadow"/>
<feBlend mode="normal" in="SourceGraphic" in2="effect1_dropShadow" result="shape"/>
</filter>
</defs>
</svg>
