<svg width="81" height="81" viewBox="0 0 81 81" fill="none" xmlns="http://www.w3.org/2000/svg">
<path d="M41.9996 21.5493C37.4996 26.0493 37.4996 33.5493 41.9996 38.0493C46.4996 42.5493 53.9996 42.5493 58.4996 38.0493C62.9996 33.5493 62.9996 26.0493 58.4996 21.5493C53.834 17.0493 46.4996 17.0493 41.9996 21.5493ZM55.9996 35.7149C52.834 38.8805 47.4996 38.8805 44.334 35.7149C41.1684 32.5493 41.1684 27.2149 44.334 24.0493C47.4996 20.8837 52.834 20.8837 55.9996 24.0493C59.334 27.2149 59.334 32.5493 55.9996 35.7149Z" fill="#1DBBFF"/>
<path d="M77.6652 1.38368C77.6652 1.38366 77.6652 1.38365 77.6652 1.38364C76.7428 1.07522 58.676 -4.90001 37.443 10.6332C33.8629 13.2522 29.4635 14.6797 25.074 14.0402V14.0402C24.3587 13.936 23.6054 13.8104 22.9423 14.0982C22.769 14.1735 22.6147 14.2686 22.4996 14.3836L1.49958 38.0492C0.499577 39.2148 1.49958 41.0492 2.99958 40.8836C4.69727 40.7304 9.38997 40.4326 12.3267 41.313C12.7785 41.4484 13.1713 41.721 13.5048 42.0545L13.6235 42.1732C15.4225 43.9722 14.7315 47.0323 12.334 47.8837V47.8837C11.1653 48.3837 10.834 49.715 11.6652 50.5493L29.1652 68.0493C29.9996 68.8837 31.4996 68.5493 31.8308 67.3836V67.3836C32.6822 64.9861 35.7423 64.2951 37.5413 66.0942L37.66 66.2129C37.9935 66.5463 38.2661 66.9391 38.4016 67.3909C39.12 69.7864 39.056 73.3504 38.9231 75.504C38.8732 76.3142 38.6391 77.2082 39.1197 77.8623C39.2752 78.0739 39.4702 78.2545 39.6653 78.3836C39.9167 78.51 40.1687 78.5645 40.4118 78.5656C41.1832 78.5689 41.7883 77.9599 42.3633 77.4456L65.1653 57.0524C65.1787 57.039 65.192 57.0251 65.2054 57.0107C65.9244 56.2339 65.618 55.0199 65.5245 53.9656V53.9656C65.1896 50.191 66.4932 46.4853 68.7786 43.4626C85.1105 21.8608 78.9777 3.31815 78.6652 2.38371C78.4996 2.04934 77.9996 1.54933 77.6653 1.38372C77.6652 1.38371 77.6652 1.3837 77.6652 1.38368V1.38368ZM6.66518 37.3836C6.66518 37.3836 6.66519 37.3836 6.6652 37.3836L23.8533 18.1084C24.2567 17.656 24.8606 17.4371 25.4602 17.5257V17.5257C26.9235 17.7422 27.5263 19.5439 26.5273 20.6349C22.5918 24.9326 18.8338 29.9121 15.2519 35.4429C14.2181 37.0393 12.2069 37.681 10.3189 37.4512C9.0741 37.2996 7.82249 37.2936 6.66519 37.3836C6.66518 37.3836 6.66518 37.3836 6.66518 37.3836V37.3836ZM30.984 61.2873C30.4359 62.6037 28.7268 62.942 27.7185 61.9337L18.2313 52.4466C17.1931 51.4084 17.5877 49.643 18.9691 49.1456V49.1456C19.6992 48.8827 20.5154 49.0651 21.0641 49.6138L30.5513 59.1009C31.1251 59.6748 31.296 60.5382 30.984 61.2873V61.2873ZM46.4946 69.9684C45.0127 71.29 42.6203 70.23 42.253 68.2787V68.2787C42.0592 67.2493 42.4544 66.1667 43.3394 65.6063C49.3789 61.7824 54.7888 57.7546 59.4108 53.5217C60.5017 52.5226 62.3035 53.1254 62.5199 54.5887V54.5887C62.6086 55.1882 62.3897 55.7922 61.9374 56.1955L46.4946 69.9684ZM61.9996 46.3836C58.6764 50.0002 54.779 53.5597 50.3081 56.9614C44.4906 61.3875 36.3838 60.2679 31.215 55.099L25.0242 48.9083C19.8209 43.705 18.7251 35.5319 23.1792 29.6744C26.507 25.2979 30.002 21.4233 33.6652 18.0492C46.5901 6.2007 58.6798 3.47096 66.6954 3.33785C72.3196 3.24445 76.7165 7.74641 76.5941 13.37C76.4188 21.4259 73.7142 33.5928 61.9996 46.3836Z" fill="black"/>
<path d="M0.499644 65.5494C0.499669 65.5494 0.499692 65.5494 0.499709 65.5494C1.16533 66.215 2.16529 66.215 2.83408 65.5494L11.6653 56.715C12.3309 56.0493 12.3309 55.0494 11.6653 54.3806C10.9997 53.7149 9.99968 53.7149 9.33088 54.3806L0.496482 63.215C-0.166005 63.715 -0.166014 64.8837 0.49958 65.5493C0.499597 65.5494 0.49962 65.5494 0.499644 65.5494V65.5494Z" fill="black"/>
<path d="M16.334 61.3839L2.49958 75.2183C1.83396 75.8839 1.83396 76.8839 2.49958 77.5527C3.16521 78.2183 4.16518 78.2183 4.83398 77.5527L18.6684 63.7183C19.334 63.0527 19.334 62.0527 18.6684 61.3839C17.9996 60.7151 16.9997 60.7151 16.334 61.3839Z" fill="black"/>
<path d="M23.334 68.3839L14.4996 77.2183C13.834 77.8839 13.834 78.8839 14.4996 79.5527C15.1652 80.2183 16.1652 80.2183 16.834 79.5527L25.6684 70.7183C26.334 70.0527 26.334 69.0527 25.6684 68.3839C24.9996 67.7151 23.9997 67.7151 23.334 68.3839Z" fill="black"/>
</svg>
